<svg width="16" height="17" viewBox="0 0 16 17" fill="none" xmlns="http://www.w3.org/2000/svg">
<path d="M3.48714 4.37663C3.26952 4.37663 3.06082 4.46307 2.90695 4.61695C2.75307 4.77083 2.66663 4.97953 2.66663 5.19714V12.5818C2.66663 12.7994 2.75307 13.0081 2.90695 13.1619C3.06082 13.3158 3.26952 13.4023 3.48714 13.4023H12.5128C12.7304 13.4023 12.9391 13.3158 13.093 13.1619C13.2468 13.0081 13.3333 12.7994 13.3333 12.5818V5.19714C13.3333 4.97953 13.2468 4.77083 13.093 4.61695C12.9391 4.46307 12.7304 4.37663 12.5128 4.37663H10.8717M2.66663 7.65869H13.3333M5.12816 2.7356V6.01764M10.8717 2.7356V6.01764M5.12816 4.37663H9.23072" stroke="#A6A6A6" stroke-width="1.5" stroke-linecap="round" stroke-linejoin="round"/>
</svg>
